<?xml version="1.0" standalone="no"?>
<!DOCTYPE svg PUBLIC "-//W3C//DTD SVG 20010904//EN"
 "http://www.w3.org/TR/2001/REC-SVG-20010904/DTD/svg10.dtd">
<svg version="1.0" xmlns="http://www.w3.org/2000/svg"
 width="1280.000000pt" height="960.000000pt" viewBox="0 0 1280.000000 960.000000"
 preserveAspectRatio="xMidYMid meet">
<metadata>
Created by potrace 1.15, written by Peter Selinger 2001-2017
</metadata>
<g transform="translate(0.000000,960.000000) scale(0.100000,-0.100000)"
fill="#000000" stroke="none">
<path d="M6538 8782 c-74 -162 -93 -225 -104 -332 -6 -63 -9 -70 -28 -70 -41
0 -46 11 -30 75 16 72 18 243 3 352 -6 43 -11 79 -12 79 -4 3 -158 -24 -163
-28 -2 -3 1 -39 7 -79 13 -82 7 -274 -10 -329 l-11 -36 -262 0 c-292 0 -439
-14 -686 -65 -412 -85 -786 -253 -1063 -477 -157 -126 -326 -329 -404 -481
-33 -67 -81 -208 -96 -282 -7 -35 -15 -66 -19 -69 -3 -3 -41 -63 -85 -135 -43
-71 -153 -252 -245 -400 -286 -462 -340 -567 -460 -885 -69 -184 -199 -686
-220 -850 -21 -158 -2 -256 78 -420 51 -102 101 -160 230 -264 61 -49 72 -63
68 -82 -21 -81 -50 -971 -43 -1294 8 -382 44 -586 136 -775 80 -163 180 -285
375 -453 55 -48 103 -90 106 -94 3 -4 41 -30 85 -58 44 -29 82 -54 84 -56 2
-2 -96 -154 -217 -337 -122 -183 -222 -342 -222 -354 0 -25 35 -53 65 -53 12
0 59 14 106 32 116 43 227 46 311 6 74 -34 133 -90 183 -172 22 -36 46 -68 54
-71 7 -3 48 17 90 43 166 107 240 132 386 132 152 0 293 -42 392 -116 l32 -24
27 24 28 23 -60 324 c-42 223 -57 326 -50 331 22 13 314 89 406 106 139 24
935 24 1122 -1 226 -30 513 -100 504 -123 -3 -7 -42 -160 -88 -339 -72 -281
-81 -327 -68 -336 23 -14 76 -1 130 32 177 109 366 85 577 -72 53 -40 71 -46
88 -30 6 5 89 44 185 87 156 70 182 79 235 79 62 0 128 -25 209 -80 33 -22 38
-23 73 -11 24 8 39 20 41 32 1 10 -54 188 -123 394 l-126 375 33 25 c187 144
229 182 252 228 l25 49 146 7 c229 11 356 41 522 125 163 81 307 186 454 328
107 104 135 146 125 187 -10 41 -47 53 -88 28 -46 -28 -241 -88 -365 -112
-137 -26 -284 -26 -416 1 -55 11 -104 22 -107 24 -3 2 9 50 28 107 97 296 143
560 164 940 13 234 2 543 -27 787 l-14 124 27 21 c192 150 265 246 328 433 21
62 26 97 26 173 0 119 -7 161 -93 505 -116 468 -236 757 -470 1135 -452 730
-456 737 -463 790 -17 130 -106 337 -204 476 -195 275 -546 526 -944 674
l-118 43 0 42 c0 51 53 163 138 292 l61 92 -70 48 c-40 27 -73 43 -77 38 -108
-150 -199 -320 -215 -404 -8 -45 -15 -60 -25 -56 -8 3 -32 8 -54 12 l-41 6 7
76 c8 104 18 134 92 300 36 79 64 145 62 146 -6 6 -140 65 -147 65 -4 0 -37
-67 -73 -148z m-178 -481 c761 -113 1360 -467 1602 -946 47 -91 84 -195 93
-258 6 -41 3 -49 -45 -121 l-51 -76 -75 52 c-41 29 -83 59 -93 66 -17 11 -21
9 -41 -22 -21 -35 -21 -36 -6 -163 17 -139 36 -436 36 -574 l0 -87 -100 -95
c-117 -112 -310 -248 -310 -220 0 32 49 214 96 360 25 79 44 151 42 160 -3 17
-21 18 -238 14 -265 -4 -377 6 -547 49 -155 39 -312 104 -555 228 -186 96
-213 106 -270 110 -85 5 -157 -23 -245 -95 -208 -172 -471 -296 -713 -339
-124 -21 -288 -14 -474 21 -188 35 -188 35 -130 -134 57 -168 94 -361 70 -361
-21 0 -201 142 -282 222 -80 79 -81 81 -87 138 -7 86 9 455 28 608 16 132 16
133 -5 168 -20 31 -24 34 -41 22 -10 -7 -52 -37 -93 -66 l-75 -52 -42 62 c-23
35 -46 66 -51 69 -10 7 21 129 56 224 130 344 504 673 982 863 214 85 505 158
729 181 55 6 116 13 135 15 19 2 154 3 300 1 200 -3 298 -8 400 -24z m-2635
-1369 c6 -4 27 -30 48 -58 59 -83 57 -82 132 -29 36 26 68 45 71 42 3 -3 0
-65 -8 -139 -17 -177 -17 -757 0 -943 16 -161 51 -383 87 -553 l26 -117 -16
-170 c-24 -261 -70 -525 -110 -632 -13 -34 -46 -98 -74 -141 -45 -70 -58 -83
-126 -121 -113 -65 -188 -92 -271 -98 -178 -14 -340 60 -561 255 -50 44 -73
74 -112 151 -113 221 -111 291 19 811 102 405 221 695 427 1032 299 493 439
717 448 717 6 1 15 -3 20 -7z m4551 -267 c92 -148 208 -335 258 -415 226 -361
353 -672 471 -1150 110 -442 110 -512 9 -718 -39 -78 -58 -103 -127 -168 -98
-90 -234 -184 -310 -213 -181 -67 -319 -51 -512 60 -65 37 -83 54 -121 110
-77 117 -105 199 -149 444 -21 117 -55 416 -55 481 0 28 11 105 25 172 79 392
95 564 91 1027 -2 214 -9 407 -15 457 -19 138 -19 139 62 83 79 -54 75 -55
144 42 25 35 49 63 54 61 4 -2 83 -124 175 -273z m-2101 -95 c257 -127 376
-176 532 -214 168 -42 246 -50 480 -49 208 1 222 0 213 -17 -5 -9 -29 -86 -54
-171 -81 -280 -109 -531 -87 -774 34 -369 116 -582 315 -815 l45 -53 -26 -46
c-75 -131 -231 -300 -365 -395 -573 -404 -1457 -507 -2208 -256 -52 18 -156
61 -230 97 -304 145 -530 344 -650 575 l-41 77 42 83 c179 355 292 673 339
953 18 108 21 155 17 275 -5 150 -19 229 -62 363 -15 44 -25 81 -23 82 2 2 36
-3 76 -11 419 -79 788 18 1175 309 125 94 179 120 237 111 19 -3 143 -58 275
-124z m-2105 -558 c0 -10 -7 -27 -15 -38 -13 -18 -14 -17 -15 19 0 26 4 37 15
37 8 0 15 -8 15 -18z m3700 -2 c0 -21 -15 -27 -25 -10 -7 12 2 30 16 30 5 0 9
-9 9 -20z m-3565 -105 c22 -18 79 -58 128 -90 l87 -58 -6 -51 c-28 -241 -89
-463 -204 -742 -21 -50 -45 -104 -54 -120 -17 -29 -17 -28 -11 36 20 227 18
279 -14 435 -32 150 -68 373 -72 452 -2 22 2 47 7 55 6 7 25 39 43 71 35 62
33 62 96 12z m3517 10 l44 -24 -8 -98 c-11 -137 -34 -293 -67 -463 -16 -80
-32 -161 -35 -180 -13 -75 40 -510 88 -720 42 -184 134 -349 230 -413 79 -52
189 -105 253 -122 124 -32 313 -11 431 49 l51 26 5 -28 c32 -164 44 -837 18
-1057 -55 -477 -169 -831 -436 -1363 -42 -84 -49 -91 -152 -172 -294 -231
-457 -303 -679 -303 -135 0 -225 17 -518 94 -452 120 -489 124 -1107 124 -563
0 -536 3 -865 -90 -270 -75 -326 -87 -455 -92 -132 -6 -210 7 -335 56 -220 85
-597 348 -788 551 -290 306 -351 579 -327 1452 5 194 12 403 15 463 3 61 7
159 10 218 3 60 8 119 11 132 l6 23 46 -23 c70 -34 129 -52 215 -64 160 -22
311 24 492 149 52 36 138 175 175 279 l27 80 54 -82 c240 -369 747 -642 1364
-734 186 -27 610 -25 804 5 498 78 887 257 1167 536 122 122 172 189 230 305
l33 63 -74 87 c-180 212 -260 403 -295 706 -11 98 -12 386 -2 422 4 13 54 53
127 102 66 44 134 91 150 105 37 32 42 32 97 1z m1712 -3916 c-48 -51 -173
-152 -262 -213 -165 -112 -320 -177 -482 -201 -122 -19 -274 -20 -267 -2 3 6
39 89 81 182 43 94 81 180 86 193 12 27 5 27 121 2 207 -44 391 -34 621 34
142 42 137 42 102 5z m-5474 -844 c123 -70 231 -116 338 -142 94 -23 298 -21
415 5 48 10 87 19 87 18 0 -1 22 -120 50 -265 27 -146 48 -266 46 -269 -2 -2
-22 6 -44 17 -107 54 -300 82 -429 62 -93 -14 -157 -39 -263 -99 l-85 -49 -32
47 c-95 142 -273 225 -427 200 -35 -5 -83 -17 -106 -25 -24 -8 -45 -14 -46
-12 -3 2 376 577 381 577 0 0 52 -29 115 -65z m4133 -350 c58 -173 104 -315
102 -315 -1 0 -28 11 -59 25 -137 61 -181 55 -416 -50 -92 -41 -170 -75 -174
-75 -3 0 -32 17 -64 39 -75 51 -123 75 -202 99 -136 42 -231 38 -349 -14 -30
-14 -55 -23 -56 -22 -4 5 130 527 137 533 4 4 57 -5 120 -19 338 -78 549 -56
783 79 33 19 63 35 67 35 3 0 54 -142 111 -315z"/>
<path d="M4860 7633 c-261 -34 -440 -173 -440 -341 0 -113 76 -212 215 -278
92 -45 186 -64 313 -64 364 0 614 218 508 445 -44 96 -174 186 -317 220 -68
16 -221 26 -279 18z m270 -70 c379 -97 402 -411 40 -530 -77 -25 -99 -28 -225
-28 -122 0 -150 3 -215 25 -307 101 -350 354 -83 488 135 69 324 86 483 45z"/>
<path d="M4898 7316 c-13 -31 -5 -54 24 -65 52 -19 92 22 63 65 -22 33 -71 33
-87 0z"/>
<path d="M6659 7625 c-213 -40 -358 -148 -390 -288 -26 -121 51 -242 205 -317
102 -50 191 -70 327 -70 238 0 435 95 504 243 81 172 -58 354 -320 422 -89 23
-236 27 -326 10z m320 -61 c71 -18 165 -64 213 -104 44 -37 88 -121 88 -169
-1 -157 -223 -291 -479 -291 -371 1 -601 233 -425 429 71 79 176 129 315 150
77 11 212 4 288 -15z"/>
<path d="M6752 7328 c-20 -20 -14 -56 13 -74 23 -15 27 -15 50 0 44 29 28 86
-25 86 -14 0 -31 -5 -38 -12z"/>
<path d="M5367 6072 c-16 -17 -10 -26 93 -153 60 -74 116 -135 123 -137 8 -2
19 4 26 12 11 13 -5 38 -101 155 -62 77 -116 140 -119 141 -3 0 -13 -8 -22
-18z"/>
<path d="M6220 5950 c-74 -65 -135 -124 -135 -131 0 -6 7 -16 16 -22 13 -8 42
12 153 108 75 65 136 121 136 125 0 4 -8 14 -17 22 -17 14 -28 7 -153 -102z"/>
</g>
</svg>
