<?xml version="1.0" standalone="no"?>
<!DOCTYPE svg PUBLIC "-//W3C//DTD SVG 20010904//EN"
 "http://www.w3.org/TR/2001/REC-SVG-20010904/DTD/svg10.dtd">
<svg version="1.0" xmlns="http://www.w3.org/2000/svg"
 width="980.000000pt" height="980.000000pt" viewBox="0 0 980.000000 980.000000"
 preserveAspectRatio="xMidYMid meet">
<metadata>
Created by potrace 1.16, written by Peter Selinger 2001-2019
</metadata>
<g transform="translate(0.000000,980.000000) scale(0.100000,-0.100000)"
fill="#000000" stroke="none">
<path d="M0 4900 l0 -4900 4900 0 4900 0 0 4900 0 4900 -4900 0 -4900 0 0
-4900z m5844 1570 c91 -46 165 -142 166 -216 0 -68 86 -158 225 -236 69 -39
80 -63 38 -79 -47 -18 -282 18 -268 41 3 6 0 7 -8 4 -8 -3 -39 7 -68 22 -53
27 -124 36 -286 38 -91 1 -143 -106 -144 -297 0 -156 46 -254 157 -333 167
-120 247 -284 246 -504 -1 -126 -24 -225 -80 -343 -40 -83 -135 -202 -153
-191 -5 3 -8 0 -7 -6 2 -6 -33 -36 -77 -66 l-80 -56 65 60 c36 33 69 57 74 54
5 -3 6 0 1 7 -4 8 3 23 18 39 40 43 105 149 128 211 27 73 51 199 47 253 l-3
43 -52 -106 c-28 -58 -76 -137 -105 -176 -162 -214 -438 -383 -746 -458 -119
-29 -147 -82 -140 -270 7 -186 34 -220 179 -232 l69 -6 1 34 c0 19 4 43 8 54
10 24 -2 69 -39 151 -43 93 -74 188 -68 205 4 10 37 22 95 33 48 10 105 24
127 32 l38 15 -44 -53 c-58 -69 -72 -106 -65 -167 8 -70 66 -208 103 -247 28
-31 37 -34 88 -34 47 0 169 -19 296 -46 21 -5 16 -10 -40 -31 -54 -21 -82 -26
-165 -26 -55 0 -128 5 -162 12 -53 10 -70 9 -108 -4 -86 -29 -224 -16 -380 37
-23 7 -45 24 -54 39 -13 23 -12 28 14 67 36 54 35 101 -4 191 -24 52 -31 84
-31 130 l0 61 -62 0 c-35 0 -73 -3 -85 -6 -27 -7 -21 -24 8 -24 11 0 18 -4 15
-9 -4 -5 4 -7 16 -3 16 4 19 2 13 -8 -15 -24 -455 9 -535 41 -14 5 -43 35 -65
67 -60 86 -108 135 -214 215 -53 40 -123 94 -157 120 -72 54 -88 72 -79 87 12
19 163 -12 372 -75 140 -43 272 -66 428 -74 252 -14 443 13 576 79 67 34 88
57 43 46 -16 -3 -74 -9 -129 -12 -114 -7 -170 4 -290 61 -137 64 -176 66 -383
20 -84 -19 -135 -25 -200 -23 l-87 3 67 32 c119 56 155 86 277 229 75 90 166
156 329 241 142 74 137 71 131 78 -17 16 -266 -75 -283 -104 -4 -6 -12 -11
-18 -11 -20 0 75 80 127 107 108 56 192 76 395 93 168 14 258 34 313 71 47 31
60 53 83 141 l13 53 -3 -72 c-3 -77 5 -86 25 -26 11 34 9 89 -6 173 -6 35 -6
35 9 10 l15 -25 1 40 c0 22 -7 81 -16 130 -12 65 -15 122 -11 205 9 175 42
278 114 356 127 136 317 189 447 124z m-1414 -1885 c25 -11 68 -33 95 -49 l50
-31 -115 -8 c-173 -12 -250 -5 -360 33 -126 43 -132 47 -90 55 162 29 347 29
420 0z m-937 -1490 c42 -32 57 -82 57 -198 0 -116 -19 -173 -66 -203 -29 -19
-153 -26 -206 -11 -71 19 -110 142 -90 284 6 42 14 79 19 82 5 3 12 13 15 22
3 8 21 23 40 33 47 24 193 18 231 -9z m438 -13 c25 -27 29 -41 29 -88 0 -45
-4 -59 -25 -79 -13 -14 -31 -25 -40 -25 -8 0 -15 -4 -15 -10 0 -5 6 -10 14
-10 22 0 32 -19 59 -107 l25 -83 -48 0 -48 0 -12 53 c-7 28 -18 67 -26 85 -12
30 -16 32 -66 32 l-53 0 3 -85 3 -85 -45 0 -46 0 0 221 0 221 131 -3 131 -4
29 -33z m357 32 c49 -6 52 -8 52 -35 l0 -29 -87 0 c-49 0 -94 -4 -101 -9 -7
-4 -14 -29 -15 -54 l-2 -47 88 0 88 0 -3 -32 -3 -33 -84 -1 -83 -1 -3 -39 c-1
-21 1 -49 6 -61 8 -22 14 -23 104 -23 l95 0 0 -35 0 -35 -119 0 c-112 0 -122
2 -148 24 l-28 24 -1 154 c0 84 2 164 6 177 13 52 98 71 238 55z m912 -214 l0
-220 -25 0 -25 0 0 214 c0 215 0 215 23 219 12 2 23 5 25 6 1 0 2 -98 2 -219z
m347 210 c43 -15 58 -51 57 -132 0 -61 -4 -72 -27 -95 -24 -24 -35 -27 -117
-31 l-90 -4 0 -84 c0 -83 0 -84 -25 -84 l-25 0 0 213 c0 118 3 217 7 220 10
11 187 8 220 -3z m377 4 c9 -3 16 -12 16 -20 0 -11 -20 -14 -89 -14 -103 0
-121 -10 -121 -66 0 -58 12 -69 105 -94 106 -28 125 -48 125 -127 0 -30 -5
-63 -11 -75 -22 -41 -102 -57 -213 -42 -36 5 -46 11 -46 26 0 17 8 18 95 17
111 -1 125 6 125 63 0 63 -11 73 -106 98 -74 20 -89 28 -105 54 -34 56 -17
167 28 179 27 7 179 8 197 1z m441 -333 c-4 -29 -16 -54 -34 -71 -51 -52 -176
-52 -234 0 l-32 28 -5 186 -5 186 25 0 25 0 0 -170 0 -170 26 -26 c20 -19 38
-27 65 -27 112 -2 124 19 124 232 0 158 0 160 23 163 22 3 22 2 25 -142 2 -80
0 -165 -3 -189z m-3415 161 c0 -117 4 -172 12 -180 7 -7 44 -12 95 -12 l83 0
0 -35 0 -35 -105 0 c-114 0 -147 9 -164 47 -7 15 -11 93 -11 203 l0 180 45 0
45 0 0 -168z m1644 117 c9 -28 26 -98 38 -155 13 -57 25 -104 29 -104 3 0 20
64 38 143 18 78 38 148 43 155 11 13 143 17 152 4 2 -4 8 -101 12 -215 l7
-207 -40 0 -40 0 -7 77 c-3 42 -6 122 -6 179 0 57 -4 105 -10 109 -10 6 -15
-10 -56 -177 -14 -56 -30 -108 -36 -115 -14 -17 -103 -17 -115 0 -6 6 -25 73
-43 147 -17 74 -36 139 -41 145 -10 10 -9 19 -18 -200 l-6 -160 -42 -3 -41 -3
4 173 c3 95 7 192 10 216 l5 42 74 0 74 0 15 -51z m2001 41 c3 -5 28 -80 54
-167 27 -86 53 -159 58 -160 5 -2 31 72 59 164 l50 168 50 0 49 0 6 -90 c4
-49 9 -145 13 -212 l6 -123 -24 0 c-21 0 -24 5 -29 68 -4 37 -7 108 -8 157 -1
114 -11 185 -23 166 -9 -14 -51 -146 -83 -261 -19 -72 -29 -82 -72 -78 -40 3
-28 -24 -116 261 -15 49 -31 85 -36 80 -4 -4 -11 -95 -15 -201 l-7 -192 -25 0
-24 0 7 198 c3 108 9 205 11 215 4 13 16 17 49 17 24 0 47 -4 50 -10z"/>
<path d="M6005 6124 c-15 -20 -41 -44 -57 -54 l-30 -18 22 -12 c76 -41 280
-87 280 -64 0 5 -30 29 -66 54 -66 45 -89 71 -76 85 4 5 2 6 -3 2 -14 -8 -48
19 -40 32 15 25 -5 8 -30 -25z"/>
<path d="M4775 5160 c-87 -24 -131 -43 -225 -99 -85 -50 -150 -100 -150 -114
0 -5 33 -6 83 -2 74 6 88 10 139 46 36 25 63 37 75 33 13 -4 14 -3 5 3 -11 8
-11 12 0 20 29 23 187 93 242 107 32 9 61 18 64 21 14 13 -171 1 -233 -15z"/>
<path d="M4985 5126 c-134 -32 -308 -124 -460 -244 -42 -33 -19 -44 80 -38 99
6 189 33 325 98 119 57 143 65 220 78 108 19 207 -37 262 -149 21 -42 23 -44
26 -20 2 14 -7 52 -19 84 -58 156 -240 236 -434 191z"/>
<path d="M3309 3031 c-23 -18 -24 -26 -24 -129 0 -125 9 -145 71 -157 70 -13
104 39 104 156 0 64 -15 118 -38 137 -24 18 -86 15 -113 -7z"/>
<path d="M3726 2988 l1 -63 55 -3 c65 -3 88 12 88 59 0 57 -14 69 -83 69 l-62
0 1 -62z"/>
<path d="M5370 2985 l0 -95 63 0 c34 0 73 6 87 13 33 17 47 73 32 126 -14 45
-28 51 -119 51 l-63 0 0 -95z"/>
</g>
</svg>
