<?xml version="1.0" standalone="no"?>
<!DOCTYPE svg PUBLIC "-//W3C//DTD SVG 20010904//EN"
 "http://www.w3.org/TR/2001/REC-SVG-20010904/DTD/svg10.dtd">
<svg version="1.0" xmlns="http://www.w3.org/2000/svg"
 width="728.000000pt" height="894.000000pt" viewBox="0 0 728.000000 894.000000"
 preserveAspectRatio="xMidYMid meet">

<g transform="translate(0.000000,894.000000) scale(0.100000,-0.100000)"
fill="#000000" stroke="none">
<path d="M3996 8864 c-40 -83 -96 -285 -122 -434 -8 -52 -22 -131 -31 -175 -8
-44 -17 -102 -20 -128 -11 -93 -22 -40 -58 273 -8 74 -15 153 -15 175 -1 22
-7 67 -15 100 -8 33 -15 81 -15 107 0 85 -27 92 -185 48 -91 -25 -135 -61
-135 -109 0 -31 29 -120 79 -243 17 -43 45 -113 62 -155 17 -43 40 -100 51
-128 11 -27 31 -78 44 -113 13 -35 31 -76 39 -92 22 -42 19 -52 -12 -46 -79
17 -665 -48 -843 -93 -70 -17 -327 -115 -426 -161 -55 -26 -111 -51 -125 -55
-13 -4 -31 -13 -39 -20 -43 -36 -154 -65 -197 -51 -10 3 -40 35 -68 70 -63 81
-91 99 -144 90 -47 -8 -80 -37 -149 -134 -82 -115 -115 -150 -217 -228 -140
-107 -139 -107 -243 -207 -51 -49 -97 -92 -102 -93 -18 -6 -173 -235 -221
-327 -26 -49 -56 -108 -68 -130 -23 -46 -107 -310 -116 -370 -4 -22 -13 -69
-20 -105 -8 -36 -19 -127 -25 -203 -16 -192 5 -363 72 -577 39 -123 56 -164
92 -214 18 -25 25 -41 17 -44 -6 -2 -33 -22 -59 -43 -26 -22 -72 -59 -102 -84
-70 -57 -120 -116 -155 -185 -110 -216 -111 -462 -4 -673 33 -63 200 -238 297
-311 115 -85 184 -122 322 -172 74 -27 116 -48 118 -58 2 -9 -10 -43 -27 -76
-84 -166 -261 -778 -267 -925 -1 -38 -5 -115 -9 -170 -9 -134 10 -390 40 -550
49 -259 135 -455 270 -621 47 -57 188 -200 226 -229 15 -11 52 -43 82 -71 l56
-52 -34 -6 c-37 -7 -318 -144 -323 -158 -2 -4 -9 -8 -14 -8 -26 0 -224 -133
-266 -178 -43 -47 -39 -72 25 -136 19 -19 38 -24 114 -29 51 -4 128 -7 172 -7
103 0 164 -30 264 -128 95 -93 113 -104 170 -104 56 1 172 18 206 31 13 5 60
12 103 16 91 8 175 -5 279 -42 183 -64 358 -113 371 -102 30 25 164 292 164
326 0 5 9 26 20 48 11 22 20 45 20 53 0 10 10 12 38 8 118 -18 337 -28 640
-27 188 0 341 -3 339 -7 -19 -37 -53 -117 -69 -162 -20 -57 -58 -219 -58 -245
0 -22 168 -21 230 1 89 31 251 54 385 53 136 0 181 -6 280 -35 40 -12 96 -18
165 -18 105 -1 105 -1 165 37 33 20 81 52 106 71 79 56 279 96 486 96 138 0
160 9 149 62 -8 40 -33 91 -56 116 -11 12 -20 25 -20 30 0 5 -15 26 -33 48
-18 21 -57 73 -87 114 -48 67 -126 166 -140 180 -3 3 -13 18 -23 33 -18 28
-16 47 6 47 6 0 25 13 41 29 17 17 65 59 106 94 42 36 110 98 151 138 41 41
97 90 123 109 26 19 56 42 67 50 11 8 49 38 86 65 132 99 364 352 466 507 215
327 396 792 397 1018 0 110 -5 124 -46 144 -57 26 -94 21 -160 -25 -32 -23
-68 -49 -79 -59 -11 -10 -45 -34 -76 -52 -31 -18 -76 -46 -99 -61 -40 -27
-173 -97 -183 -97 -5 0 -8 22 -26 215 -9 101 -24 185 -66 384 -9 41 -14 80
-11 87 2 6 29 23 58 37 85 39 267 198 318 277 16 25 44 65 61 90 40 56 80 146
103 230 10 36 24 88 32 116 60 209 56 473 -10 759 -56 242 -134 465 -231 660
-35 72 -80 164 -99 205 -19 41 -43 89 -53 105 -63 104 -106 182 -148 265 -26
52 -58 109 -71 127 -13 17 -24 34 -24 36 0 6 -56 97 -92 152 -33 49 -71 179
-98 333 -44 255 -61 305 -108 323 -35 14 -127 5 -159 -16 -13 -9 -26 -15 -27
-13 -1 2 -35 44 -75 93 -91 112 -195 213 -286 279 -38 27 -86 64 -106 80 -40
34 -134 92 -188 117 -20 9 -83 39 -141 66 -58 28 -121 57 -140 66 -55 25 -197
64 -295 82 -49 9 -98 21 -107 26 -10 5 -24 9 -32 9 -17 0 -29 31 -20 53 7 20
50 40 139 66 139 41 201 60 260 81 33 12 80 25 105 29 84 16 215 54 233 69 9
8 17 23 17 33 0 27 -53 157 -89 218 -17 28 -31 56 -31 61 0 6 -4 10 -9 10 -5
0 -11 10 -13 21 -6 39 -32 46 -82 20 -49 -24 -200 -124 -224 -147 -7 -8 -18
-14 -23 -14 -5 0 -26 -16 -46 -35 -20 -19 -41 -35 -46 -35 -9 0 -78 -62 -210
-192 -92 -91 -127 -108 -127 -64 0 14 4 27 9 30 5 3 19 25 31 48 12 24 30 52
40 63 10 11 40 56 67 100 26 44 93 142 148 218 118 162 155 225 147 246 -24
68 -230 161 -356 161 l-64 0 -36 -76z m-146 -1034 c30 -6 102 -17 160 -25 58
-8 132 -19 165 -24 33 -6 101 -17 150 -24 101 -17 178 -43 379 -129 156 -67
263 -130 401 -237 81 -63 275 -257 275 -275 0 -13 -11 -14 -65 -9 -85 8 -116
-6 -148 -65 -29 -54 -57 -144 -57 -182 0 -35 -35 -80 -63 -80 -52 0 -209 -76
-227 -110 -30 -57 4 -145 91 -235 58 -60 154 -201 185 -270 51 -116 114 -567
114 -816 0 -77 -17 -225 -30 -255 -14 -36 -284 -170 -483 -240 -82 -29 -301
-87 -457 -120 -131 -28 -422 -46 -434 -26 -24 39 85 362 160 472 40 58 59 99
85 185 25 80 22 137 -8 206 -38 86 -95 105 -443 154 -134 18 -159 24 -299 72
-91 30 -126 49 -275 152 -195 134 -195 134 -258 150 -56 13 -119 2 -183 -32
-31 -16 -178 -129 -205 -157 -3 -3 -21 -17 -41 -32 -59 -44 -108 -52 -304 -53
l-180 0 -49 -40 c-45 -37 -106 -118 -143 -189 -36 -70 -147 -191 -168 -183
-17 7 -78 116 -111 199 -50 123 -85 327 -78 455 18 364 139 680 372 973 74 93
285 292 369 348 47 31 101 68 121 81 134 89 375 201 557 257 61 19 131 41 156
49 58 19 207 42 379 60 147 15 492 12 590 -5z m-1976 -221 c15 -11 36 -39 47
-61 11 -22 31 -50 44 -62 l24 -22 -53 -41 c-99 -78 -278 -258 -334 -338 -61
-85 -172 -254 -172 -260 0 -2 -22 -51 -50 -110 -27 -58 -64 -145 -81 -193 -92
-261 -105 -596 -34 -873 13 -54 87 -205 127 -261 l19 -27 -42 -21 c-23 -12
-75 -33 -116 -46 -42 -14 -130 -50 -196 -80 l-121 -56 -31 34 c-68 74 -151
370 -161 578 -7 117 10 290 42 447 20 98 120 390 149 433 12 20 34 59 49 87
80 159 382 477 566 598 66 43 89 65 125 120 42 66 122 158 143 167 26 10 27
10 56 -13z m3826 -609 c11 -11 20 -23 20 -27 1 -13 27 -192 45 -303 21 -135
29 -165 63 -222 31 -54 161 -261 205 -328 44 -67 244 -441 268 -502 11 -29 40
-96 64 -148 106 -230 189 -481 221 -669 13 -80 26 -152 29 -159 3 -7 5 -82 6
-165 1 -132 -2 -166 -25 -259 -14 -59 -26 -115 -26 -124 0 -33 -139 -300 -187
-358 -127 -156 -325 -270 -494 -283 -64 -5 -79 -9 -77 -21 3 -17 39 -30 112
-40 49 -7 50 -7 72 -63 31 -82 76 -298 94 -454 23 -207 6 -587 -35 -785 -103
-492 -278 -807 -595 -1071 -114 -95 -414 -267 -517 -295 -184 -51 -369 -97
-443 -110 -413 -72 -461 -75 -992 -71 -366 3 -486 7 -573 20 -60 9 -139 21
-175 26 -134 20 -613 139 -683 170 -23 10 -64 26 -92 36 -67 24 -171 76 -239
119 -79 50 -252 194 -316 263 -68 73 -190 243 -217 303 -53 118 -62 138 -76
181 -44 128 -78 358 -92 614 -10 175 23 405 95 670 35 129 116 366 143 420 13
28 39 78 56 113 28 57 51 76 65 53 7 -10 35 -16 181 -41 209 -35 881 -23 1100
19 372 72 413 84 580 168 39 20 91 47 118 60 52 26 227 195 293 284 23 30 49
78 58 105 22 68 44 206 52 340 l7 111 106 11 c58 7 140 14 181 18 104 8 192
21 275 41 132 31 310 82 365 103 30 12 77 28 103 36 47 15 252 113 333 160
l42 24 -8 -37 c-5 -21 -14 -99 -20 -173 -6 -74 -16 -155 -21 -179 -12 -56 -25
-279 -21 -388 4 -129 73 -317 146 -395 62 -67 75 -40 27 58 -16 32 -39 97 -52
144 -32 122 -30 384 6 643 48 348 58 749 25 1004 -18 142 -37 257 -61 363 -37
163 -49 211 -62 241 -16 38 -98 154 -151 214 -108 121 -117 147 -70 184 29 23
113 51 151 51 48 0 94 74 128 207 16 62 52 103 91 103 29 0 143 -38 183 -61
l34 -20 36 34 c64 61 106 72 141 37z m-2917 -1004 c53 -15 138 -66 227 -136
166 -129 414 -210 705 -229 140 -9 164 -15 213 -56 73 -61 63 -168 -29 -337
-126 -228 -209 -531 -209 -761 0 -100 -38 -296 -68 -347 -69 -120 -143 -202
-250 -276 -128 -90 -282 -150 -522 -203 -471 -103 -1144 -106 -1463 -6 -329
104 -508 203 -659 364 -133 143 -184 248 -195 397 -6 86 8 189 35 259 22 57
110 172 178 235 152 139 240 197 374 247 36 13 97 39 135 57 39 18 94 41 123
50 135 45 280 164 350 289 47 84 97 150 133 178 31 23 37 24 203 24 190 0 245
12 308 68 69 61 169 138 204 159 39 23 122 49 139 44 6 -2 36 -11 68 -20z
m3963 -3108 c22 -43 15 -116 -26 -248 -75 -245 -302 -713 -397 -820 -7 -8 -27
-33 -44 -54 -106 -139 -385 -400 -339 -318 153 276 227 548 252 930 7 100 16
182 20 182 4 0 8 7 8 15 0 8 26 32 58 53 31 22 122 82 201 135 78 53 158 110
177 127 45 39 69 38 90 -2z m-5014 -2104 c9 -8 321 -119 478 -169 109 -34 432
-115 525 -130 22 -4 43 -9 47 -11 9 -6 -66 -226 -101 -294 -27 -51 -31 -55
-61 -52 -18 1 -105 27 -194 57 -233 78 -352 89 -536 48 -95 -21 -146 -26 -175
-19 -15 4 -64 44 -108 90 -57 57 -91 85 -112 88 -16 3 -55 15 -87 27 -44 16
-81 21 -170 21 -140 2 -158 6 -157 34 1 42 307 217 529 301 36 14 112 20 122
9z m3658 -120 c31 -33 69 -77 85 -98 17 -22 41 -51 54 -65 43 -47 113 -160
109 -178 -3 -16 -13 -18 -71 -15 -77 4 -269 -13 -337 -30 -54 -13 -237 -100
-298 -141 -55 -37 -99 -43 -154 -24 -78 29 -221 49 -348 51 -132 1 -246 -15
-415 -60 -56 -15 -93 -20 -99 -14 -12 12 16 120 55 214 16 37 29 76 29 86 0
36 31 46 220 69 197 24 541 98 705 152 133 44 133 44 225 86 139 64 132 62
160 43 14 -10 50 -44 80 -76z"/>
<path d="M1800 6672 c-82 -22 -161 -75 -211 -142 -47 -62 -61 -111 -63 -211
-1 -68 3 -83 34 -145 25 -49 49 -79 85 -107 116 -90 234 -123 410 -115 91 4
108 8 178 42 140 67 210 192 188 336 -6 38 -17 82 -23 97 -23 52 -97 141 -145
172 -114 76 -321 109 -453 73z m309 -87 c70 -22 94 -36 139 -78 67 -64 91
-110 99 -190 8 -91 -9 -143 -65 -197 -67 -65 -161 -94 -302 -94 -97 -1 -111 2
-181 32 -138 59 -196 127 -206 240 -9 114 29 195 123 257 105 70 239 80 393
30z"/>
<path d="M1900 6360 c-11 -11 -20 -29 -20 -40 0 -25 34 -60 58 -60 31 0 62 29
62 59 0 55 -61 80 -100 41z"/>
<path d="M3860 6680 c-125 -18 -268 -88 -338 -165 -26 -28 -63 -80 -81 -115
-30 -57 -35 -75 -39 -161 -4 -87 -2 -102 20 -150 51 -110 214 -229 360 -264
73 -17 273 -20 333 -4 22 6 58 14 81 19 46 10 166 66 213 99 17 12 44 42 61
67 81 120 98 279 43 396 -33 69 -98 149 -141 171 -15 8 -52 28 -82 45 -90 50
-303 81 -430 62z m294 -101 c128 -31 246 -118 286 -211 27 -62 36 -169 20
-227 -27 -100 -182 -203 -354 -236 -220 -42 -420 1 -542 117 -92 87 -113 151
-86 267 18 79 43 121 109 183 135 125 336 163 567 107z"/>
<path d="M3906 6278 c-34 -47 -7 -98 51 -98 55 0 85 67 45 103 -27 25 -78 22
-96 -5z"/>
<path d="M2267 5642 c-3 -4 -9 -42 -13 -83 -5 -64 -4 -78 11 -93 10 -9 22 -15
28 -13 16 5 34 68 38 133 l4 59 -32 3 c-17 2 -34 -1 -36 -6z"/>
<path d="M2751 5585 c-49 -22 -161 -104 -161 -119 0 -19 22 -36 49 -36 25 0
217 67 239 83 18 14 15 51 -6 70 -23 21 -76 21 -121 2z"/>
</g>
</svg>
